<?xml version="1.0" encoding="UTF-8" standalone="no" ?>
<!DOCTYPE svg PUBLIC "-//W3C//DTD SVG 1.1//EN" "http://www.w3.org/Graphics/SVG/1.1/DTD/svg11.dtd">
<svg xmlns="http://www.w3.org/2000/svg" xmlns:xlink="http://www.w3.org/1999/xlink" version="1.1" width="263.5394" height="269.5688" xml:space="preserve">
<desc>Created with Fabric.js 1.6.0-rc.1</desc>
<defs></defs>
<g style="stroke: none; stroke-width: 1; stroke-dasharray: none; stroke-linecap: butt; stroke-linejoin: miter; stroke-miterlimit: 10; fill: none; fill-rule: nonzero; opacity: 1;" transform="translate(10 10) scale(0.78 0.78)" >
  <path d="M 303.671 253.512 c -11.151 -37.754 -67.121 -33.566 -91.279 -44.408 c -24.157 -10.842 -20.386 -47.219 -23.449 -53.548 H 130.01 c -3.058 6.329 0.714 42.711 -23.449 53.548 c -24.157 10.842 -80.133 6.655 -91.279 44.408 c -6.149 20.824 -5.857 27.193 -7.554 50.26 c 0 0 76.8 15.187 150.014 15.187 s 153.488 -15.187 153.488 -15.187 C 309.527 280.699 309.82 274.337 303.671 253.512 z" style="stroke: none; stroke-width: 1; stroke-dasharray: none; stroke-linecap: butt; stroke-linejoin: miter; stroke-miterlimit: 10; fill: #F9F5ED; fill-rule: nonzero; opacity: 1;" transform=" matrix(1 0 0 1 0 0) " stroke-linecap="round" />
  <path d="M 171.12 220.064 l 37.765 -12.832 l 0.006 -0.006 c -20.279 -12.635 -17.036 -45.673 -19.942 -51.682 H 130.01 c -2.94 6.087 0.427 39.946 -20.779 52.182 l 0.006 0.006 l 37.563 12.326 l 12.624 32.526 L 171.12 220.064 z" style="stroke: none; stroke-width: 1; stroke-dasharray: none; stroke-linecap: butt; stroke-linejoin: miter; stroke-miterlimit: 10; fill: #DBB491; fill-rule: nonzero; opacity: 1;" transform=" matrix(1 0 0 1 0 0) " stroke-linecap="round" />
  <path d="M 303.671 253.512 c -11.151 -37.754 -67.121 -33.566 -91.279 -44.408 c -24.157 -10.842 -20.386 -47.219 -23.449 -53.548 h -31.206 c 0 0 -0.719 51.024 23.438 61.866 s 80.133 6.655 91.279 44.408 c 5.857 19.83 5.868 26.552 7.324 47.073 c 19.234 -2.816 31.442 -5.126 31.442 -5.126 C 309.527 280.699 309.82 274.337 303.671 253.512 z" style="stroke: none; stroke-width: 1; stroke-dasharray: none; stroke-linecap: butt; stroke-linejoin: miter; stroke-miterlimit: 10; fill: #EAEAE1; fill-rule: nonzero; opacity: 1;" transform=" matrix(1 0 0 1 0 0) " stroke-linecap="round" />
  <path d="M 180.236 216.967 l 28.643 -9.729 l 0.006 -0.006 c -20.279 -12.635 -17.036 -45.673 -19.942 -51.682 h -31.206 C 157.743 155.556 157.04 205.237 180.236 216.967 z" style="stroke: none; stroke-width: 1; stroke-dasharray: none; stroke-linecap: butt; stroke-linejoin: miter; stroke-miterlimit: 10; fill: #CCA483; fill-rule: nonzero; opacity: 1;" transform=" matrix(1 0 0 1 0 0) " stroke-linecap="round" />
  <path d="M 122.081 193.152 c 9.78 7.959 21.24 15.85 37.338 18.132 c 16.137 -2.288 27.569 -10.342 37.36 -18.334 c -8.144 -14.973 -5.626 -32.83 -7.83 -37.4 H 130.01 C 127.797 160.126 130.264 178.173 122.081 193.152 z" style="stroke: none; stroke-width: 1; stroke-dasharray: none; stroke-linecap: butt; stroke-linejoin: miter; stroke-miterlimit: 10; fill: #C69E7F; fill-rule: nonzero; opacity: 1;" transform=" matrix(1 0 0 1 0 0) " stroke-linecap="round" />
  <polygon points="208.88,207.24 194.68,250.86 171.12,220.06 " style="stroke: none; stroke-width: 1; stroke-dasharray: none; stroke-linecap: butt; stroke-linejoin: miter; stroke-miterlimit: 10; fill: #C6C5AF; fill-rule: nonzero; opacity: 1;" transform="  matrix(1 0 0 1 0 0) "/>
  <polygon points="109.23,207.74 123.52,250.86 146.79,220.06 " style="stroke: none; stroke-width: 1; stroke-dasharray: none; stroke-linecap: butt; stroke-linejoin: miter; stroke-miterlimit: 10; fill: #C6C5AF; fill-rule: nonzero; opacity: 1;" transform="  matrix(1 0 0 1 0 0) "/>
  <path d="M 146.795 220.064 l -25.72 -28.536 c 0 0 -3.389 4.817 -11.843 16.21 l 15.091 37.405 L 146.795 220.064 z" style="stroke: none; stroke-width: 1; stroke-dasharray: none; stroke-linecap: butt; stroke-linejoin: miter; stroke-miterlimit: 10; fill: #EAEAE1; fill-rule: nonzero; opacity: 1;" transform=" matrix(1 0 0 1 0 0) " stroke-linecap="round" />
  <path d="M 171.12 220.064 l 25.72 -28.536 c 0 0 3.592 4.311 12.045 15.704 l -15.294 37.911 L 171.12 220.064 z" style="stroke: none; stroke-width: 1; stroke-dasharray: none; stroke-linecap: butt; stroke-linejoin: miter; stroke-miterlimit: 10; fill: #EAEAE1; fill-rule: nonzero; opacity: 1;" transform=" matrix(1 0 0 1 0 0) " stroke-linecap="round" />
  <path d="M 176.23 214.398 c 1.523 1.203 3.17 2.22 4.952 3.024 c 5.66 2.541 13.062 4.255 21.223 5.874 l 6.481 -16.058 c -8.453 -11.393 -12.045 -15.704 -12.045 -15.704 L 176.23 214.398 z" style="stroke: none; stroke-width: 1; stroke-dasharray: none; stroke-linecap: butt; stroke-linejoin: miter; stroke-miterlimit: 10; fill: #E0DBD3; fill-rule: nonzero; opacity: 1;" transform=" matrix(1 0 0 1 0 0) " stroke-linecap="round" />
  <circle cx="159.481" cy="268.411" r="7.031" style="stroke: none; stroke-width: 1; stroke-dasharray: none; stroke-linecap: butt; stroke-linejoin: miter; stroke-miterlimit: 10; fill: #6D6D6D; fill-rule: nonzero; opacity: 1;" transform="  matrix(1 0 0 1 0 0) "/>
  <circle cx="159.481" cy="293.361" r="7.031" style="stroke: none; stroke-width: 1; stroke-dasharray: none; stroke-linecap: butt; stroke-linejoin: miter; stroke-miterlimit: 10; fill: #6D6D6D; fill-rule: nonzero; opacity: 1;" transform="  matrix(1 0 0 1 0 0) "/>
  <path d="M 166.484 318.891 c 0.017 -0.191 0.028 -0.388 0.028 -0.585 c 0 -3.884 -3.148 -7.031 -7.031 -7.031 c -3.884 0 -7.031 3.148 -7.031 7.031 c 0 0.214 0.011 0.422 0.028 0.624 c 1.754 0.017 3.513 0.028 5.266 0.028 C 160.644 318.959 163.561 318.936 166.484 318.891 z" style="stroke: none; stroke-width: 1; stroke-dasharray: none; stroke-linecap: butt; stroke-linejoin: miter; stroke-miterlimit: 10; fill: #6D6D6D; fill-rule: nonzero; opacity: 1;" transform=" matrix(1 0 0 1 0 0) " stroke-linecap="round" />
  <ellipse cx="228.516" cy="118.549" rx="21.386" ry="11.629" style="stroke: none; stroke-width: 1; stroke-dasharray: none; stroke-linecap: butt; stroke-linejoin: miter; stroke-miterlimit: 10; fill: #CCA483; fill-rule: nonzero; opacity: 1;" transform=" matrix(-0.177 0.9842 -0.9842 -0.177 385.6469 -85.3759) "/>
  <ellipse cx="90.259" cy="118.556" rx="11.629" ry="21.386" style="stroke: none; stroke-width: 1; stroke-dasharray: none; stroke-linecap: butt; stroke-linejoin: miter; stroke-miterlimit: 10; fill: #DBB491; fill-rule: nonzero; opacity: 1;" transform=" matrix(-0.9842 0.177 -0.177 -0.9842 200.0847 219.268) "/>
  <path d="M 223.64 47.359 h -64.221 H 95.231 c 0 0 -35.989 146.614 64.187 160.806 C 259.633 193.973 223.64 47.359 223.64 47.359 z" style="stroke: none; stroke-width: 1; stroke-dasharray: none; stroke-linecap: butt; stroke-linejoin: miter; stroke-miterlimit: 10; fill: #DBB491; fill-rule: nonzero; opacity: 1;" transform=" matrix(1 0 0 1 0 0) " stroke-linecap="round" />
  <path d="M 159.418 208.165 c 100.216 -14.192 64.221 -160.806 64.221 -160.806 h -15.024 c 4.114 61.242 9.808 93.774 -13.815 129.24 C 176.083 204.703 159.418 208.165 159.418 208.165 z" style="stroke: none; stroke-width: 1; stroke-dasharray: none; stroke-linecap: butt; stroke-linejoin: miter; stroke-miterlimit: 10; fill: #CCA483; fill-rule: nonzero; opacity: 1;" transform=" matrix(1 0 0 1 0 0) " stroke-linecap="round" />
  <path d="M 235.786 53.092 c -5.722 -22.769 -34.595 -48.725 -76.305 -48.725 c -21.932 0 -40.48 6.964 -53.649 17.295 c -9.645 7.565 -11.978 16.901 -11.978 16.901 s -8.594 5.283 -10.679 14.535 l 7.683 63.564 c 0 0 -0.006 -17.064 0.956 -28.946 c 0.961 -11.882 4.165 -31.661 23.652 -31.38 c 12.601 0.18 25.315 11.983 42.278 14.58 c 16.463 2.518 29.716 -2.698 47.893 0.719 c 17.941 3.372 21.015 15.513 22.196 27.378 c 0.691 7.003 0.27 17.654 0.27 17.654 L 235.786 53.092 z" style="stroke: none; stroke-width: 1; stroke-dasharray: none; stroke-linecap: butt; stroke-linejoin: miter; stroke-miterlimit: 10; fill: #CCA483; fill-rule: nonzero; opacity: 1;" transform=" matrix(1 0 0 1 0 0) " stroke-linecap="round" />
  <path d="M 228.118 116.633 c 18.593 -20.459 7.667 -67.908 7.667 -67.908 C 230.064 25.956 201.191 0 159.48 0 c -21.931 0 -40.479 6.964 -53.648 17.295 c -9.645 7.565 -11.978 16.901 -11.978 16.901 s -8.594 5.283 -10.679 14.535 c 0 0 -10.932 47.483 7.683 67.931 l 0 0 l 0 0 c 0 0 -0.006 -21.431 0.956 -33.313 c 0.961 -11.882 4.165 -31.661 23.652 -31.38 c 12.601 0.18 25.315 11.983 42.278 14.58 c 16.463 2.518 29.716 -2.698 47.893 0.719 c 17.941 3.372 21.015 15.513 22.196 27.378 c 0.691 7.003 0.27 22.022 0.27 22.022 l 0 0 l 0 0 C 228.107 116.645 228.114 116.639 228.118 116.633 z" style="stroke: none; stroke-width: 1; stroke-dasharray: none; stroke-linecap: butt; stroke-linejoin: miter; stroke-miterlimit: 10; fill: #3B3B3B; fill-rule: nonzero; opacity: 1;" transform=" matrix(1 0 0 1 0 0) " stroke-linecap="round" />
</g>
</svg>